<svg width="50" height="50" xmlns="http://www.w3.org/2000/svg">
    <path d="M0 -25 
    C0 -12.5 8.83883475 -8.83883475 17.6776695 -17.6776695 
    C8.83883475 -8.83883475 12.5 0 25 0 
    C12.5 0 8.83883475 8.83883475 17.6776695 17.6776695 
    C8.83883475 8.83883475 0 12.5 0 25
    C0 12.5 -8.83883475 8.83883475 -17.6776695 17.6776695 
    C-8.83883475 8.83883475 -12.5 0 -25 0 
    C-12.5 0 -8.83883475 -8.83883475 -17.6776695 -17.6776695 
    C-8.83883475 -8.83883475 0 -12.5 0 -25
    Z" fill="#ff2000" transform="translate(25, 25) rotate(5)" />
    <path d="M0 -25 
    C0 -12.5 8.83883475 -8.83883475 17.6776695 -17.6776695 
    C8.83883475 -8.83883475 12.5 0 25 0 
    C12.5 0 8.83883475 8.83883475 17.6776695 17.6776695 
    C8.83883475 8.83883475 0 12.5 0 25
    C0 12.5 -8.83883475 8.83883475 -17.6776695 17.6776695 
    C-8.83883475 8.83883475 -12.5 0 -25 0 
    C-12.5 0 -8.83883475 -8.83883475 -17.6776695 -17.6776695 
    C-8.83883475 -8.83883475 0 -12.5 0 -25
    Z" fill="#ff8000" transform="translate(25, 25) rotate(10) scale(0.65)" />
    <path d="M0 -25 
    C0 -12.5 8.83883475 -8.83883475 17.6776695 -17.6776695 
    C8.83883475 -8.83883475 12.5 0 25 0 
    C12.5 0 8.83883475 8.83883475 17.6776695 17.6776695 
    C8.83883475 8.83883475 0 12.5 0 25
    C0 12.5 -8.83883475 8.83883475 -17.6776695 17.6776695 
    C-8.83883475 8.83883475 -12.5 0 -25 0 
    C-12.5 0 -8.83883475 -8.83883475 -17.6776695 -17.6776695 
    C-8.83883475 -8.83883475 0 -12.5 0 -25
    Z" fill="#ffff00" transform="translate(25, 25) rotate(30) scale(0.4)" />
</svg>