<svg width="50" height="50" xmlns="http://www.w3.org/2000/svg">
    <path d="M5 0 L45 0 A5 5 0 0 1 50 5 L50 45 A5 5 0 0 1 45 50 L5 50 A5 5 0 0 1 0 45 L0 5 A5 5 0 0 1 5 0" fill="#404040" />
    <rect x="5" y="5" width="25" height="10" fill="#606060" />
    <rect x="35" y="5" width="10" height="10" fill="#606060" />
    <rect x="5" y="20" width="10" height="10" fill="#606060" />
    <rect x="20" y="20" width="25" height="10" fill="#606060" />
    <rect x="5" y="35" width="25" height="10" fill="#606060" />
    <rect x="35" y="35" width="10" height="10" fill="#606060" />
</svg>